<svg xmlns="http://www.w3.org/2000/svg" width="258" height="98" viewBox="0 0 258 98" version="1.1"><path d="M 6.264 11.855 L 0.027 23.694 0.680 24.347 L 1.333 25 22.667 25 L 44 25 44 25.649 L 44 26.299 26.500 60.226 L 9 94.153 9 95.077 L 9 96 31.750 95.994 L 54.500 95.987 72.680 60.744 L 90.859 25.500 113.431 25.231 L 136.003 24.962 142.002 12.997 L 148 1.031 148 0.515 L 148 0 80.250 0.008 L 12.500 0.016 6.264 11.855 M 10.706 7.250 L 7.240 13.500 5.120 17.710 L 3 21.920 3 22.460 L 3 23 24.333 23 L 45.667 23 46.319 23.653 L 46.972 24.305 44.114 29.403 L 41.256 34.500 26.056 64.250 L 10.857 94 32.178 93.999 L 53.500 93.997 65.666 70.749 L 77.832 47.500 84.052 35.250 L 90.272 23 112.627 23 L 134.983 23 140.500 12 L 146.017 1 80.094 1 L 14.172 1 10.706 7.250 M 96.158 51.537 L 86.898 65.073 91.981 81.037 L 97.064 97 97.892 97 L 98.720 97 107.110 84.823 L 115.500 72.647 116.408 70.813 L 117.315 68.978 112.416 53.489 L 107.517 38 106.467 38 L 105.417 38 96.158 51.537 M 137.404 63.765 L 136.308 64.500 135.658 67.157 L 135.009 69.814 134.397 71.407 L 133.786 73 137.893 73 L 142 73 141.989 73.750 L 141.977 74.500 138.989 84.413 L 136 94.326 136 95.163 L 136 96 140.957 96 L 145.914 96 149.013 85.750 L 152.112 75.500 152.502 74.310 L 152.891 73.120 157.101 72.810 L 161.310 72.500 162.643 68.635 L 163.975 64.769 163.429 63.885 L 162.882 63 150.691 63.015 L 138.500 63.031 137.404 63.765 M 166.294 64.250 L 165.344 65.500 161.172 79.591 L 157 93.681 157 94.841 L 157 96 161.933 96 L 166.865 96 167.379 94.250 L 167.892 92.500 172.003 78.747 L 176.115 64.995 175.498 63.997 L 174.882 63 171.063 63 L 167.245 63 166.294 64.250 M 180.519 63.969 L 179.920 64.939 175.472 79.719 L 171.023 94.500 171.012 95.250 L 171 96 175.889 96 L 180.778 96 182.548 89.459 L 184.319 82.919 184.973 83.709 L 185.627 84.500 187.365 90.250 L 189.102 96 193.844 96 L 198.585 96 203.042 80.750 L 207.500 65.500 207.500 64.500 L 207.500 63.500 203 63.500 L 198.500 63.500 196.402 69.765 L 194.303 76.030 193.836 76.497 L 193.369 76.964 192.054 71.732 L 190.739 66.500 189.835 64.750 L 188.930 63 185.024 63 L 181.118 63 180.519 63.969 M 215.121 64.710 L 211.743 66.374 209.875 69.437 L 208.007 72.500 208.004 75.677 L 208 78.855 210.547 80.858 L 213.094 82.862 216.035 83.508 L 218.977 84.154 219.498 84.996 L 220.018 85.839 218.393 87.464 L 216.768 89.089 215.662 88.721 L 214.555 88.352 213.975 85.926 L 213.395 83.500 208.947 83.857 L 204.500 84.214 203.723 85.357 L 202.946 86.500 203.497 89.497 L 204.049 92.493 206.035 94.480 L 208.022 96.467 213.766 96.467 L 219.509 96.467 223.004 94.302 L 226.500 92.138 228.250 89.165 L 230 86.191 230 82.596 L 230 79 228.083 77.083 L 226.167 75.167 226.750 74.583 L 227.333 74 230.167 74 L 233 74 233 70.573 L 233 67.145 230.365 65.073 L 227.730 63 223.115 63.023 L 218.500 63.046 215.121 64.710 M 246.445 63.765 L 245.389 64.500 236.195 79.237 L 227 93.974 227 94.987 L 227 96 232.021 96 L 237.043 96 238.182 93.500 L 239.321 91 243.161 91 L 247 91 247 93.500 L 247 96 252.493 96 L 257.986 96 257.409 80.750 L 256.832 65.500 256.447 64.250 L 256.063 63 251.781 63.015 L 247.500 63.031 246.445 63.765 M 137.179 67.915 L 136.163 70.830 136.748 71.415 L 137.333 72 140.667 72 L 144 72 144 72.252 L 144 72.504 141 83 L 138 93.496 138 93.748 L 138 94 141.457 94 L 144.914 94 147.957 84.139 L 151 74.278 151 73.139 L 151 72 154.800 72 L 158.600 72 159.800 70.800 L 161 69.600 161 67.300 L 161 65 149.598 65 L 138.196 65 137.179 67.915 M 163.703 76.750 L 160.079 88.500 159.431 91.250 L 158.783 94 162.185 94 L 165.588 94 168.231 85.750 L 170.873 77.500 171.996 73 L 173.119 68.500 173.627 66.750 L 174.135 65 170.731 65 L 167.327 65 163.703 76.750 M 181.728 65.694 L 181.268 66.500 178.684 74.500 L 176.099 82.500 174.645 88.250 L 173.190 94 176.456 94 L 179.722 94 182.014 85.952 L 184.305 77.905 184.956 78.702 L 185.607 79.500 187.879 86.806 L 190.151 94.112 193.796 93.806 L 197.440 93.500 200.744 83 L 204.049 72.500 204.665 68.670 L 205.281 64.840 202.391 65.170 L 199.500 65.500 197.009 73.250 L 194.518 81 193.962 81 L 193.406 81 190.898 73.250 L 188.390 65.500 185.289 65.194 L 182.188 64.887 181.728 65.694 M 216.500 65.954 L 214.500 66.781 212.324 69.141 L 210.148 71.500 209.530 74 L 208.911 76.500 210.303 78.402 L 211.696 80.305 216.089 81.928 L 220.482 83.550 220.824 85.323 L 221.165 87.096 219.960 88.548 L 218.755 90 215.897 90 L 213.038 90 212.397 87.446 L 211.756 84.891 208.628 85.196 L 205.500 85.500 205.208 88.001 L 204.915 90.502 206.290 92.382 L 207.664 94.261 212.582 94.686 L 217.500 95.111 220.980 93.305 L 224.460 91.500 226.730 88.102 L 229 84.704 229 82.391 L 229 80.078 226.825 78.051 L 224.650 76.025 221.245 75.386 L 217.840 74.747 217.308 73.361 L 216.776 71.975 218.011 70.487 L 219.245 69 221.216 69 L 223.187 69 223.710 71 L 224.233 73 227.617 73 L 231 73 231 70.035 L 231 67.070 229.066 66.035 L 227.131 65 222.816 65.063 L 218.500 65.127 216.500 65.954 M 241.219 74.250 L 235.232 83.500 232.142 88.750 L 229.052 94 232.411 94 L 235.770 94 237.442 91.448 L 239.115 88.895 243.807 89.198 L 248.500 89.500 248.820 91.750 L 249.139 94 252.570 94 L 256 94 256 85.647 L 256 77.293 255.358 71.147 L 254.715 65 250.960 65 L 247.206 65 241.219 74.250 M 218.565 71.895 L 218.011 72.790 219.588 73.395 L 221.164 74 222.082 74 L 223 74 223 72.500 L 223 71 221.059 71 L 219.118 71 218.565 71.895 M 245.163 78 L 241.865 84 245.432 84 L 249 84 249 78 L 249 72 248.731 72 L 248.462 72 245.163 78 M 246.212 79.032 L 245 80.973 245 81.486 L 245 82 245.883 82 L 246.767 82 247.344 79.794 L 247.921 77.587 247.672 77.339 L 247.424 77.091 246.212 79.032" stroke="none" fill="#e60f0f" fill-rule="evenodd"/><path d="M 10.706 7.250 L 7.240 13.500 5.120 17.710 L 3 21.920 3 22.460 L 3 23 24.333 23 L 45.667 23 46.319 23.653 L 46.972 24.305 44.114 29.403 L 41.256 34.500 26.056 64.250 L 10.857 94 32.178 93.999 L 53.500 93.997 65.666 70.749 L 77.832 47.500 84.052 35.250 L 90.272 23 112.627 23 L 134.983 23 140.500 12 L 146.017 1 80.094 1 L 14.172 1 10.706 7.250 M 137.179 67.915 L 136.163 70.830 136.748 71.415 L 137.333 72 140.667 72 L 144 72 144 72.252 L 144 72.504 141 83 L 138 93.496 138 93.748 L 138 94 141.457 94 L 144.914 94 147.957 84.139 L 151 74.278 151 73.139 L 151 72 154.800 72 L 158.600 72 159.800 70.800 L 161 69.600 161 67.300 L 161 65 149.598 65 L 138.196 65 137.179 67.915 M 163.703 76.750 L 160.079 88.500 159.431 91.250 L 158.783 94 162.185 94 L 165.588 94 168.231 85.750 L 170.873 77.500 171.996 73 L 173.119 68.500 173.627 66.750 L 174.135 65 170.731 65 L 167.327 65 163.703 76.750 M 181.728 65.694 L 181.268 66.500 178.684 74.500 L 176.099 82.500 174.645 88.250 L 173.190 94 176.456 94 L 179.722 94 182.014 85.952 L 184.305 77.905 184.956 78.702 L 185.607 79.500 187.879 86.806 L 190.151 94.112 193.796 93.806 L 197.440 93.500 200.744 83 L 204.049 72.500 204.665 68.670 L 205.281 64.840 202.391 65.170 L 199.500 65.500 197.009 73.250 L 194.518 81 193.962 81 L 193.406 81 190.898 73.250 L 188.390 65.500 185.289 65.194 L 182.188 64.887 181.728 65.694 M 216.500 65.954 L 214.500 66.781 212.324 69.141 L 210.148 71.500 209.530 74 L 208.911 76.500 210.303 78.402 L 211.696 80.305 216.089 81.928 L 220.482 83.550 220.824 85.323 L 221.165 87.096 219.960 88.548 L 218.755 90 215.897 90 L 213.038 90 212.397 87.446 L 211.756 84.891 208.628 85.196 L 205.500 85.500 205.208 88.001 L 204.915 90.502 206.290 92.382 L 207.664 94.261 212.582 94.686 L 217.500 95.111 220.980 93.305 L 224.460 91.500 226.730 88.102 L 229 84.704 229 82.391 L 229 80.078 226.825 78.051 L 224.650 76.025 221.245 75.386 L 217.840 74.747 217.308 73.361 L 216.776 71.975 218.011 70.487 L 219.245 69 221.216 69 L 223.187 69 223.710 71 L 224.233 73 227.617 73 L 231 73 231 70.035 L 231 67.070 229.066 66.035 L 227.131 65 222.816 65.063 L 218.500 65.127 216.500 65.954 M 241.219 74.250 L 235.232 83.500 232.142 88.750 L 229.052 94 232.411 94 L 235.770 94 237.442 91.448 L 239.115 88.895 243.807 89.198 L 248.500 89.500 248.820 91.750 L 249.139 94 252.570 94 L 256 94 256 85.647 L 256 77.293 255.358 71.147 L 254.715 65 250.960 65 L 247.206 65 241.219 74.250 M 245.163 78 L 241.865 84 245.432 84 L 249 84 249 78 L 249 72 248.731 72 L 248.462 72 245.163 78" stroke="none" fill="#aca5a5" fill-rule="evenodd"/></svg>